<svg width="114" height="52" viewBox="0 0 114 52" fill="none" xmlns="http://www.w3.org/2000/svg">
<path d="M44.7469 29.9393L50.0443 1.58625C50.2034 0.710088 50.683 0.273193 51.4808 0.273193H58.6231C59.0339 0.273193 59.3568 0.387171 59.5895 0.612742C59.8222 0.838313 59.9694 1.12086 60.0288 1.46041C60.0786 1.74297 60.0762 2.01128 60.0264 2.26534L54.7575 30.5757C54.672 31.0553 54.5224 31.402 54.3064 31.6133C54.0903 31.8246 53.765 31.9315 53.3281 31.9315H46.1858C45.7513 31.9315 45.4118 31.8246 45.1696 31.6133C44.9274 31.402 44.7754 31.1265 44.7161 30.787C44.6757 30.5614 44.6876 30.2789 44.7469 29.9393Z" fill="black"/>
<path d="M57.0395 29.9393L62.3368 1.58625C62.4959 0.710088 62.9755 0.273193 63.7733 0.273193H70.7708C71.1816 0.273193 71.5092 0.387171 71.7562 0.612742C72.0007 0.838313 72.1551 1.12086 72.2145 1.46041C72.2643 1.74297 72.2619 2.01128 72.2121 2.26534L70.9418 9.04671L77.1224 1.12087C77.3765 0.781323 77.6519 0.555756 77.9463 0.441783C78.2407 0.330185 78.5565 0.273193 78.8961 0.273193H88.0685C88.4793 0.273193 88.7856 0.358675 88.9827 0.527259C89.1821 0.695843 89.3008 0.895296 89.3412 1.12087C89.4053 1.4889 89.2747 1.91155 88.9494 2.39119L77.8347 16.462L84.2433 30.1934C84.4404 30.7585 84.4974 31.1883 84.4166 31.4851C84.3359 31.7819 83.994 31.9291 83.3885 31.9291H73.8172C72.922 31.9291 72.3071 31.5207 71.9699 30.6991L68.4605 22.5192L66.9432 30.5709C66.7889 31.4756 66.2997 31.9267 65.4782 31.9267H58.4808C58.0462 31.9267 57.7067 31.8199 57.4645 31.6085C57.2223 31.3972 57.0703 31.1218 57.011 30.7822C56.9706 30.5567 56.9825 30.2741 57.0418 29.9346L57.0395 29.9393Z" fill="black"/>
<path d="M85.2144 30.787C85.1598 30.4759 85.1574 30.1934 85.2096 29.9393L90.507 1.58625C90.666 0.710088 91.1457 0.273193 91.9435 0.273193H111.958C112.368 0.273193 112.691 0.387171 112.924 0.612742C113.157 0.838313 113.304 1.12086 113.363 1.46041C113.413 1.74297 113.411 2.01128 113.361 2.26534L112.119 9.00397C111.965 9.90863 111.487 10.3598 110.69 10.3598H99.0502L98.8103 11.6728H108.816C109.614 11.6728 110.082 12.0694 110.222 12.86C110.272 13.1426 110.269 13.4109 110.219 13.665L109.217 19.0905C109.108 19.5702 108.952 19.9168 108.747 20.1282C108.543 20.3395 108.223 20.4464 107.788 20.4464H97.1649L96.925 21.7594H108.166C108.624 21.7594 108.971 21.8663 109.201 22.0776C109.431 22.2889 109.574 22.5501 109.628 22.8611C109.673 23.1152 109.669 23.4263 109.612 23.7943L108.341 30.5757C108.187 31.4803 107.71 31.9315 106.912 31.9315H86.6438C86.2092 31.9315 85.8768 31.8246 85.6441 31.6133C85.4138 31.402 85.269 31.1265 85.2096 30.787H85.2144Z" fill="black"/>
<path d="M21.7817 0.00244141H35.4893C40.2216 0.00244141 44.0658 3.84426 44.0658 8.57887V8.90418C44.0658 13.6364 40.2239 17.4806 35.4893 17.4806H21.7817V0.00481091V0.00244141Z" fill="#F37421"/>
<path d="M14.9199 7.28241L17.3727 14.6954L19.3601 21.3889L20.7135 26.0926L23.0049 26.8881C23.0049 26.8881 29.8954 29.405 28.3711 24.2382C26.8467 19.0691 34.7986 18.7366 34.2027 18.2736C33.6067 17.8106 32.0823 15.4908 32.0158 15.2914C31.9493 15.0919 28.3046 8.13482 28.3046 8.13482L25.4553 5.94798C25.4553 5.94798 22.6938 4.49007 21.7559 4.29062C20.818 4.09117 19.7566 4.02469 19.2936 4.02469C18.8306 4.02469 17.1733 3.75875 16.7102 4.02469C16.2472 4.29062 15.3188 5.28313 15.3188 5.28313L14.9223 7.28003L14.9199 7.28241Z" fill="white"/>
<path d="M39.4738 17.0722C39.3789 16.9463 37.5957 14.7144 34.478 13.8074C33.4974 13.5509 32.4883 13.5129 31.4791 13.5343C31.3865 13.5343 31.2939 13.5224 31.1325 13.5106C35.2284 11.3142 35.8861 6.7648 34.3237 3.9226C33.8749 3.11292 33.2908 2.38635 33.2291 2.31986C31.7712 0.755115 29.9714 -0.00707382 27.832 4.94641e-05C24.4651 0.0119216 21.0981 0.0119257 17.7312 0.019049C14.2978 0.0237978 10.862 0.0285458 7.42853 0.040418C7.2267 0.040418 7.00114 0.0712852 6.83018 0.166262C6.45739 0.370463 6.32917 0.778867 6.44552 1.19914C6.54762 1.56955 6.86817 1.80937 7.29556 1.81174C8.61812 1.81886 9.94068 1.82124 11.2632 1.82599C11.3772 1.82599 11.4936 1.82599 11.6028 1.84736C11.8568 1.90197 12.0231 2.06343 12.0729 2.31749C12.1228 2.56918 12.0159 2.77576 11.7999 2.8921C11.6669 2.96334 11.4959 2.99658 11.3416 2.99658C9.21173 3.00608 7.07949 3.00608 4.94963 3.00845C4.53173 3.00845 4.19218 3.25064 4.07584 3.59968C3.88113 4.17905 4.28242 4.78928 4.97575 4.78215C6.91566 4.76553 8.85794 4.78215 10.7978 4.78928C11.8735 4.79165 12.9467 4.7964 14.0223 4.80352C14.4426 4.8059 14.6967 5.02434 14.7014 5.37101C14.7062 5.74142 14.4877 5.93137 14.0437 5.93375C11.9803 5.94562 9.91693 5.95512 7.85118 5.97174C7.6541 5.97174 7.4499 5.98836 7.25757 6.03585C6.91328 6.12133 6.65922 6.49412 6.65684 6.87166C6.65684 7.27768 6.8563 7.56973 7.2457 7.66471C7.50926 7.72882 7.7847 7.76682 8.05538 7.77631C8.53977 7.79531 9.02653 7.76681 9.51091 7.79056C9.68662 7.80006 9.79821 7.82143 9.94305 7.92353L10.0689 8.01849C10.1591 8.14196 10.1971 8.31531 10.1829 8.4744C10.0452 8.84718 9.76972 8.94453 9.39694 8.94453C6.62835 8.94215 3.85977 8.94927 1.09356 8.95402C0.998578 8.95402 0.903598 8.95165 0.808621 8.96115C0.217388 9.02763 -0.0200531 9.49539 0.00131676 9.86343C0.0274355 10.2956 0.288624 10.7206 0.90835 10.723C2.05995 10.7277 3.20917 10.7254 4.36077 10.7277C5.15858 10.7277 5.95876 10.7372 6.75657 10.7372C7.01776 10.7372 7.22433 10.8346 7.33356 11.0744C7.52351 11.5018 7.25045 11.9054 6.77082 11.9102C5.83767 11.9149 4.90689 11.9102 3.97374 11.9173C3.47986 11.9197 3.07858 12.2687 3.05008 12.7009C3.01209 13.3087 3.34214 13.6696 3.95712 13.6768C5.1657 13.6886 6.37429 13.7076 7.5805 13.6839C7.83219 13.6791 8.11237 13.5438 8.32607 13.3966C8.54451 13.2446 8.71547 13.0143 8.87694 12.7982C9.50853 11.9506 10.1164 11.0839 10.7551 10.241C11.3297 9.48351 12.0326 8.86617 12.923 8.50051C14.0437 8.04225 15.2214 7.86891 16.4252 7.85704C17.2326 7.84991 18.0422 7.86416 18.8519 7.85704C19.0537 7.85704 19.2603 7.82617 19.4598 7.78581C19.6853 7.74069 19.8492 7.53649 19.8397 7.30854C19.8207 6.89539 19.4669 6.59147 18.9683 6.58434C18.2654 6.57485 17.5602 6.58434 16.8574 6.58434C16.525 6.58434 16.24 6.47274 16.0596 6.18069C15.6702 5.55146 16.1498 4.80115 16.9429 4.89138C17.971 5.0101 19.0062 5.0101 20.0344 4.89375C20.8892 4.79877 21.5279 5.10032 21.8912 5.80078C22.2592 6.51311 22.575 7.25156 22.9169 7.97813C23.1473 8.46727 23.3776 8.9564 23.6269 9.49064C23.6886 9.35293 23.7242 9.26745 23.7622 9.18197C23.9902 8.67384 24.2086 8.16097 24.4484 7.65759C24.5767 7.38928 24.7999 7.25868 25.1157 7.26818C25.5716 7.28243 25.8256 7.56735 25.9942 7.92827C26.5712 9.14635 27.1339 10.3739 27.6872 11.6039C27.8724 12.0147 28.06 12.4373 28.1644 12.8718C28.295 13.4179 27.8819 13.8643 27.3286 13.7955C26.9582 13.748 26.5997 13.6103 26.2364 13.5058C25.9657 13.4298 25.6974 13.3443 25.3673 13.247C25.4505 13.4346 25.4979 13.5462 25.5478 13.6554C25.9799 14.5885 26.4216 15.5146 26.8442 16.4525C27.0746 16.9653 27.0603 16.9725 27.5851 16.8466C29.1142 16.481 30.5721 16.7018 31.9184 17.4782C33.5591 18.4233 34.5801 19.836 34.9244 21.7213C35.245 23.4713 34.8579 25.0621 33.7989 26.4631C32.6473 27.9898 31.0921 28.8138 29.1593 28.8897C27.6302 28.9515 26.2649 28.5098 25.0824 27.5434C23.862 26.5462 23.1211 25.2735 22.8837 23.7016C22.6819 22.3553 22.9098 21.1016 23.539 19.9073C23.8976 19.2234 24.3891 18.6464 24.9589 18.1336C24.4105 16.963 23.8667 15.809 23.3135 14.6313C23.0713 14.9732 22.8576 15.2748 22.6462 15.5739C21.5303 17.1529 20.419 18.7367 19.2959 20.3133C18.6762 21.1823 18.0612 22.0561 17.4035 22.8943C16.9381 23.4879 16.3564 23.958 15.5871 24.1219C15.4019 24.1599 15.2119 24.1717 15.0243 24.1741C13.4335 24.1812 11.8402 24.1812 10.2494 24.1907C9.85283 24.186 9.64388 24.2952 9.64388 24.2952C9.05027 24.5421 8.98854 25.5703 9.6605 25.8742C9.84333 25.9549 10.0618 25.9834 10.266 25.9858C11.598 25.9977 12.9301 25.9953 14.2621 25.9929C14.4901 25.9929 14.7299 26.0119 14.8391 26.2233C14.9222 26.3823 14.965 26.6103 14.9199 26.7789C14.8486 27.0306 14.6231 27.154 14.3452 27.154C13.4406 27.154 12.5383 27.1516 11.6337 27.1588C11.1469 27.1611 10.767 27.5434 10.7575 28.0207C10.7456 28.5763 11.0899 28.942 11.6716 28.9538C12.5074 28.9705 13.3456 28.961 14.1838 28.9681C14.2954 28.9681 14.4117 28.9776 14.521 29.0037C14.8059 29.0773 14.9863 29.3219 14.965 29.5831C14.9412 29.8561 14.7418 30.0627 14.445 30.0912C14.2289 30.1126 14.0081 30.1126 13.7896 30.1126C11.6123 30.1221 9.43255 30.1221 7.2552 30.1434C7.00114 30.1458 6.71858 30.2075 6.50488 30.3358C6.18433 30.5305 6.07273 30.9602 6.18433 31.2594C6.36004 31.7248 6.65685 31.9338 7.15073 31.9338C15.542 31.9385 23.9308 31.9409 32.322 31.948C33.9462 31.948 35.461 31.5325 36.8406 30.7014C39.215 29.2744 40.7109 27.1991 41.2547 24.459C41.504 23.2053 41.4755 21.9588 41.2072 20.7241C40.9151 19.3801 40.3073 18.1668 39.4762 17.0746L39.4738 17.0722ZM10.0879 7.21594C10.0072 7.28717 9.92169 7.35603 9.84571 7.42964C9.78872 7.48663 9.73885 7.55074 9.68662 7.61248C9.63438 7.53887 9.58214 7.46763 9.56789 7.44626C9.58689 7.06398 9.82908 6.88114 10.095 6.97849C10.1473 6.99749 10.1829 7.0616 10.2256 7.10434C10.1805 7.14234 10.133 7.17795 10.0879 7.21594Z" fill="#F37421"/>
<path d="M10.9864 51.9528C10.7434 51.9633 10.5533 51.9002 10.4159 51.7636C10.2786 51.627 10.21 51.4536 10.21 51.2434C10.21 51.0857 10.2628 50.9439 10.3684 50.8178C10.4635 50.6916 10.6061 50.6233 10.7962 50.6128L11.2874 50.5813C11.7945 50.5393 12.1801 50.3711 12.4441 50.0769C12.7082 49.7721 12.8403 49.3517 12.8403 48.8157V41.454C12.8403 41.1808 12.9089 40.9759 13.0463 40.8392C13.1836 40.7026 13.3843 40.6343 13.6484 40.6343C13.9125 40.6343 14.1132 40.7026 14.2505 40.8392C14.3984 40.9759 14.4723 41.1808 14.4723 41.454V48.8157C14.4723 49.4463 14.3561 49.9875 14.1237 50.4394C13.9019 50.8808 13.5744 51.2276 13.1413 51.4798C12.7082 51.7321 12.1695 51.8792 11.5251 51.9212L10.9864 51.9528Z" fill="black"/>
<path d="M24.9126 52C24.1626 52 23.5024 51.9055 22.932 51.7163C22.3615 51.5166 21.8809 51.2224 21.49 50.8335C21.1098 50.4447 20.8193 49.9613 20.6186 49.3832C20.4178 48.8052 20.3175 48.1379 20.3175 47.3812V41.454C20.3175 41.1808 20.3862 40.9759 20.5235 40.8392C20.6714 40.7026 20.8774 40.6343 21.1414 40.6343C21.4055 40.6343 21.6062 40.7026 21.7436 40.8392C21.8915 40.9759 21.9654 41.1808 21.9654 41.454V47.3497C21.9654 48.4322 22.2136 49.2414 22.7101 49.7773C23.2172 50.3133 23.9513 50.5813 24.9126 50.5813C25.8845 50.5813 26.6186 50.3133 27.1151 49.7773C27.6116 49.2414 27.8598 48.4322 27.8598 47.3497V41.454C27.8598 41.1808 27.9285 40.9759 28.0658 40.8392C28.2137 40.7026 28.4144 40.6343 28.6679 40.6343C28.932 40.6343 29.1327 40.7026 29.2701 40.8392C29.4074 40.9759 29.476 41.1808 29.476 41.454V47.3812C29.476 48.3901 29.3018 49.2414 28.9532 49.935C28.6151 50.6181 28.1081 51.133 27.432 51.4798C26.7559 51.8266 25.9161 52 24.9126 52Z" fill="black"/>
<path d="M36.1215 51.9685C35.8786 51.9685 35.6884 51.9002 35.5511 51.7636C35.4138 51.627 35.3451 51.4325 35.3451 51.1803V41.454C35.3451 41.1913 35.4085 40.9916 35.5352 40.855C35.6726 40.7079 35.8521 40.6343 36.074 40.6343C36.2641 40.6343 36.4067 40.6711 36.5018 40.7447C36.6074 40.8077 36.7289 40.9286 36.8662 41.1072L43.3945 49.667H42.9984V41.4067C42.9984 41.165 43.0617 40.9759 43.1885 40.8392C43.3258 40.7026 43.516 40.6343 43.7589 40.6343C44.0125 40.6343 44.2026 40.7026 44.3294 40.8392C44.4561 40.9759 44.5195 41.165 44.5195 41.4067V51.1961C44.5195 51.4378 44.4561 51.627 44.3294 51.7636C44.2132 51.9002 44.0547 51.9685 43.854 51.9685C43.6639 51.9685 43.5054 51.9317 43.3786 51.8582C43.2624 51.7846 43.1357 51.6585 42.9984 51.4798L36.5018 42.9358H36.8662V51.1803C36.8662 51.4325 36.8029 51.627 36.6761 51.7636C36.5493 51.9002 36.3645 51.9685 36.1215 51.9685Z" fill="black"/>
<path d="M55.4553 52C54.325 52 53.3585 51.7688 52.5556 51.3064C51.7528 50.844 51.1348 50.1872 50.7017 49.336C50.2792 48.4742 50.0679 47.4601 50.0679 46.2935C50.0679 45.4213 50.1894 44.6383 50.4324 43.9447C50.6753 43.2406 51.0239 42.6416 51.4782 42.1476C51.943 41.6432 52.5081 41.2596 53.1736 40.9969C53.8497 40.7341 54.6102 40.6028 55.4553 40.6028C56.0786 40.6028 56.6754 40.6869 57.2458 40.855C57.8268 41.0232 58.3286 41.2649 58.7511 41.5801C58.9307 41.6957 59.0469 41.8376 59.0997 42.0058C59.1631 42.1634 59.1737 42.3158 59.1314 42.4629C59.0997 42.61 59.0311 42.7362 58.9254 42.8412C58.8198 42.9358 58.6825 42.9884 58.5135 42.9989C58.355 43.0094 58.1807 42.9516 57.9906 42.8255C57.642 42.5628 57.2564 42.3683 56.8339 42.2422C56.4113 42.1161 55.9676 42.0531 55.5029 42.0531C54.7 42.0531 54.024 42.2212 53.4747 42.5575C52.9254 42.8833 52.5081 43.3615 52.2229 43.992C51.9377 44.6226 51.7951 45.3897 51.7951 46.2935C51.7951 47.1973 51.9377 47.9698 52.2229 48.6108C52.5081 49.2414 52.9254 49.7248 53.4747 50.0611C54.024 50.3869 54.7 50.5498 55.5029 50.5498C55.9676 50.5498 56.4113 50.4867 56.8339 50.3606C57.267 50.224 57.6737 50.0243 58.0539 49.7616C58.2441 49.646 58.4131 49.5934 58.561 49.6039C58.7194 49.6144 58.8515 49.667 58.9571 49.7616C59.0628 49.8562 59.1314 49.977 59.1631 50.1241C59.2054 50.2608 59.2001 50.4079 59.1473 50.5655C59.105 50.7127 59.0047 50.8388 58.8462 50.9439C58.4131 51.2907 57.9008 51.5534 57.3092 51.7321C56.7177 51.9107 56.0997 52 55.4553 52Z" fill="black"/>
<path d="M67.8782 51.9685C67.6142 51.9685 67.4082 51.895 67.2603 51.7478C67.1229 51.6007 67.0543 51.3958 67.0543 51.133V42.1161H63.6951C63.4733 42.1161 63.299 42.0583 63.1722 41.9427C63.0454 41.8166 62.9821 41.6432 62.9821 41.4225C62.9821 41.2018 63.0454 41.0337 63.1722 40.9181C63.299 40.8025 63.4733 40.7447 63.6951 40.7447H72.0455C72.2779 40.7447 72.4575 40.8025 72.5843 40.9181C72.711 41.0337 72.7744 41.2018 72.7744 41.4225C72.7744 41.6432 72.711 41.8166 72.5843 41.9427C72.4575 42.0583 72.2779 42.1161 72.0455 42.1161H68.6863V51.133C68.6863 51.3958 68.6177 51.6007 68.4804 51.7478C68.3536 51.895 68.1529 51.9685 67.8782 51.9685Z" fill="black"/>
<path d="M78.167 51.9685C77.9029 51.9685 77.6969 51.895 77.549 51.7478C77.4117 51.6007 77.343 51.3958 77.343 51.133V41.4698C77.343 41.1966 77.4117 40.9916 77.549 40.855C77.6969 40.7079 77.9029 40.6343 78.167 40.6343C78.4311 40.6343 78.6318 40.7079 78.7691 40.855C78.917 40.9916 78.991 41.1966 78.991 41.4698V51.133C78.991 51.3958 78.9223 51.6007 78.785 51.7478C78.6476 51.895 78.4417 51.9685 78.167 51.9685Z" fill="black"/>
<path d="M89.759 52C88.7027 52 87.7784 51.7688 86.9861 51.3064C86.2044 50.8335 85.597 50.1714 85.1639 49.3202C84.7414 48.4584 84.5301 47.4495 84.5301 46.2935C84.5301 45.4213 84.6516 44.6383 84.8945 43.9447C85.1375 43.2406 85.4861 42.6416 85.9403 42.1476C86.3946 41.6432 86.9439 41.2596 87.5882 40.9969C88.2326 40.7341 88.9562 40.6028 89.759 40.6028C90.826 40.6028 91.7503 40.834 92.532 41.2964C93.3137 41.7588 93.9158 42.4156 94.3383 43.2669C94.7714 44.1181 94.988 45.1218 94.988 46.2778C94.988 47.15 94.8665 47.9382 94.6235 48.6423C94.3806 49.3465 94.0267 49.9507 93.5619 50.4552C93.1077 50.9596 92.5584 51.3432 91.914 51.6059C91.2696 51.8687 90.5513 52 89.759 52ZM89.759 50.5813C90.4985 50.5813 91.127 50.4131 91.6446 50.0769C92.1728 49.7406 92.5742 49.2519 92.8489 48.6108C93.1341 47.9698 93.2767 47.1973 93.2767 46.2935C93.2767 44.9378 92.9703 43.8869 92.3577 43.1408C91.745 42.3946 90.8788 42.0215 89.759 42.0215C89.0196 42.0215 88.3858 42.1897 87.8576 42.526C87.34 42.8518 86.9386 43.3352 86.6534 43.9762C86.3787 44.6173 86.2414 45.3897 86.2414 46.2935C86.2414 47.6387 86.5477 48.6896 87.1604 49.4463C87.7837 50.203 88.6499 50.5813 89.759 50.5813Z" fill="black"/>
<path d="M101.301 51.9685C101.058 51.9685 100.867 51.9002 100.73 51.7636C100.593 51.627 100.524 51.4325 100.524 51.1803V41.454C100.524 41.1913 100.588 40.9916 100.714 40.855C100.852 40.7079 101.031 40.6343 101.253 40.6343C101.443 40.6343 101.586 40.6711 101.681 40.7447C101.786 40.8077 101.908 40.9286 102.045 41.1072L108.574 49.667H108.177V41.4067C108.177 41.165 108.241 40.9759 108.368 40.8392C108.505 40.7026 108.695 40.6343 108.938 40.6343C109.191 40.6343 109.382 40.7026 109.508 40.8392C109.635 40.9759 109.699 41.165 109.699 41.4067V51.1961C109.699 51.4378 109.635 51.627 109.508 51.7636C109.392 51.9002 109.234 51.9685 109.033 51.9685C108.843 51.9685 108.684 51.9317 108.558 51.8582C108.441 51.7846 108.315 51.6585 108.177 51.4798L101.681 42.9358H102.045V51.1803C102.045 51.4325 101.982 51.627 101.855 51.7636C101.728 51.9002 101.544 51.9685 101.301 51.9685Z" fill="black"/>
</svg>
