<svg width="116" height="53" viewBox="0 0 116 53" fill="none" xmlns="http://www.w3.org/2000/svg">
<g clip-path="url(#clip0_1089_10566)">
<path d="M45.7335 30.5149L51.1476 1.61663C51.3102 0.723617 51.8004 0.27832 52.6158 0.27832H59.9156C60.3354 0.27832 60.6654 0.39449 60.9033 0.624398C61.1411 0.854307 61.2916 1.14229 61.3522 1.48837C61.4032 1.77636 61.4008 2.04983 61.3498 2.30878L55.9648 31.1635C55.8774 31.6523 55.7245 32.0057 55.5037 32.2211C55.2829 32.4364 54.9504 32.5453 54.5039 32.5453H47.2041C46.76 32.5453 46.413 32.4364 46.1654 32.2211C45.9179 32.0057 45.7626 31.7249 45.7019 31.3789C45.6607 31.149 45.6728 30.861 45.7335 30.5149Z" fill="white"/>
<path d="M58.2975 30.5149L63.7116 1.61663C63.8742 0.723617 64.3644 0.27832 65.1798 0.27832H72.3315C72.7513 0.27832 73.0862 0.39449 73.3386 0.624398C73.5886 0.854307 73.7463 1.14229 73.807 1.48837C73.858 1.77636 73.8555 2.04983 73.8046 2.30878L72.5062 9.22056L78.8231 1.14229C79.0828 0.79622 79.3643 0.566316 79.6652 0.450152C79.9662 0.336407 80.2889 0.27832 80.636 0.27832H90.0106C90.4304 0.27832 90.7435 0.365444 90.9449 0.53727C91.1488 0.709097 91.2701 0.912384 91.3114 1.14229C91.3769 1.51741 91.2434 1.94819 90.9109 2.43704L79.5512 16.7785L86.1011 30.7738C86.3025 31.3498 86.3607 31.7879 86.2782 32.0904C86.1957 32.3929 85.8462 32.5429 85.2274 32.5429H75.4451C74.5302 32.5429 73.9016 32.1267 73.557 31.2893L69.9703 22.9522L68.4195 31.1586C68.2618 32.0807 67.7619 32.5405 66.9222 32.5405H59.7705C59.3264 32.5405 58.9794 32.4316 58.7319 32.2162C58.4843 32.0008 58.329 31.7201 58.2683 31.374C58.2271 31.1441 58.2392 30.8561 58.2999 30.5101L58.2975 30.5149Z" fill="white"/>
<path d="M87.0932 31.3789C87.0374 31.0618 87.035 30.7738 87.0884 30.5149L92.5025 1.61663C92.6651 0.723617 93.1553 0.27832 93.9707 0.27832H114.426C114.846 0.27832 115.176 0.39449 115.414 0.624398C115.652 0.854307 115.802 1.14229 115.863 1.48837C115.914 1.77636 115.911 2.04983 115.86 2.30878L114.591 9.17699C114.433 10.099 113.946 10.5589 113.13 10.5589H101.234L100.989 11.8972H111.215C112.031 11.8972 112.509 12.3013 112.652 13.1072C112.703 13.3952 112.701 13.6687 112.65 13.9276L111.626 19.4575C111.514 19.9464 111.354 20.2997 111.145 20.5151C110.936 20.7305 110.609 20.8394 110.165 20.8394H99.3072L99.0621 22.1777H110.55C111.019 22.1777 111.373 22.2866 111.609 22.502C111.844 22.7174 111.99 22.9836 112.045 23.3006C112.091 23.5596 112.087 23.8766 112.028 24.2517L110.73 31.1635C110.572 32.0855 110.085 32.5453 109.269 32.5453H88.5541C88.11 32.5453 87.7703 32.4364 87.5325 32.2211C87.2971 32.0057 87.149 31.7249 87.0884 31.3789H87.0932Z" fill="white"/>
<path fill-rule="evenodd" clip-rule="evenodd" d="M33.1805 16.336L27.6651 5.38505L27.0585 4.96155L16.502 3.14648C16.502 3.14648 16.6053 4.37345 17.0786 4.1024C17.4238 3.90466 18.4187 3.99544 19.1154 4.05901C19.3736 4.08258 19.5909 4.1024 19.7189 4.1024C20.1921 4.1024 21.2769 4.17017 22.2355 4.37345C23.194 4.57674 26.0164 6.06268 26.0164 6.06268L28.9285 8.29158C28.9285 8.29158 32.6536 15.3824 32.7216 15.5857C32.7438 15.6522 32.9251 15.9494 33.1805 16.336ZM35.8317 18.6515C35.7587 18.6587 35.6885 18.6673 35.6214 18.6755C35.3337 18.7106 35.103 18.7388 34.9567 18.6254C34.5466 18.3077 33.7065 17.1323 33.1805 16.336L35.8317 18.6515ZM36.4449 18.6513L36.6442 19.3611L35.8317 18.6515C36.0198 18.6328 36.2262 18.623 36.4449 18.6513ZM37.0128 18.8179C36.8172 18.7248 36.6268 18.6748 36.4449 18.6513L35.7949 16.336L37.0128 18.8179ZM37.0128 18.8179C37.7266 19.1581 38.5087 20.0743 39.1923 22.3862C40.7503 27.6523 38.5856 22.0232 38.5856 22.0232L37.0128 18.8179Z" fill="white"/>
<path d="M40.3442 17.4005C40.2471 17.2722 38.4246 14.9974 35.2383 14.0729C34.236 13.8115 33.2046 13.7728 32.1733 13.7946C32.0786 13.7946 31.984 13.7825 31.8189 13.7704C36.0051 11.5318 36.6774 6.89489 35.0805 3.99804C34.6219 3.17279 34.0249 2.43224 33.9618 2.36448C32.4718 0.769637 30.6323 -0.00720986 28.4457 5.04154e-05C25.0046 0.0121509 21.5633 0.012155 18.1221 0.0194153C14.613 0.0242554 11.1014 0.0290948 7.5923 0.0411953C7.38602 0.0411953 7.1555 0.0726562 6.98077 0.16946C6.59977 0.377587 6.46872 0.793846 6.58764 1.2222C6.69199 1.59974 7.01958 1.84416 7.4564 1.84658C8.80811 1.85384 10.1599 1.85626 11.5116 1.8611C11.6281 1.8611 11.747 1.8611 11.8586 1.88288C12.1183 1.93854 12.2881 2.10311 12.3391 2.36206C12.39 2.61859 12.2808 2.82913 12.06 2.94772C11.9241 3.02032 11.7494 3.0542 11.5917 3.0542C9.41483 3.06388 7.23556 3.06388 5.05874 3.0663C4.63163 3.0663 4.2846 3.31315 4.16569 3.66891C3.96669 4.25941 4.37684 4.88137 5.08546 4.87411C7.06814 4.85717 9.05322 4.87411 11.0359 4.88137C12.1352 4.88379 13.2322 4.88863 14.3315 4.89589C14.761 4.89831 15.0207 5.12096 15.0255 5.47429C15.0304 5.85183 14.8071 6.04544 14.3533 6.04786C12.2445 6.05996 10.1356 6.06964 8.02426 6.08658C7.82284 6.08658 7.61414 6.10352 7.41757 6.15192C7.06569 6.23904 6.80602 6.619 6.80359 7.00379C6.80359 7.41763 7.00747 7.7153 7.40546 7.8121C7.67483 7.87745 7.95634 7.91617 8.23299 7.92585C8.72805 7.94521 9.22554 7.91617 9.72061 7.94037C9.90019 7.95005 10.0142 7.97183 10.1623 8.07589L10.2909 8.1727C10.3831 8.29854 10.4219 8.47521 10.4074 8.63735C10.2666 9.01731 9.98513 9.11653 9.60412 9.11653C6.7745 9.11411 3.94487 9.12137 1.11766 9.12621C1.02059 9.12621 0.92352 9.12379 0.826449 9.13347C0.222181 9.20123 -0.0204952 9.67799 0.00134579 10.0531C0.0280405 10.4936 0.294987 10.9268 0.928376 10.9292C2.10536 10.934 3.27994 10.9316 4.45692 10.934C5.27232 10.934 6.09015 10.9437 6.90554 10.9437C7.17249 10.9437 7.38359 11.0429 7.49523 11.2874C7.68937 11.723 7.41031 12.1344 6.9201 12.1392C5.96638 12.1441 5.01508 12.1392 4.06136 12.1465C3.55659 12.1489 3.14644 12.5047 3.11732 12.9451C3.07849 13.5647 3.41581 13.9325 4.04435 13.9398C5.27958 13.9519 6.51483 13.9712 7.74764 13.947C8.00487 13.9422 8.29121 13.8042 8.50962 13.6542C8.73288 13.4993 8.90764 13.2646 9.07266 13.0443C9.71818 12.1804 10.3394 11.297 10.9922 10.4379C11.5795 9.66589 12.2978 9.03667 13.2079 8.66397C14.3533 8.1969 15.557 8.02023 16.7874 8.00813C17.6125 8.00087 18.44 8.01539 19.2676 8.00813C19.4738 8.00813 19.685 7.97667 19.8888 7.93553C20.1194 7.88955 20.2868 7.68142 20.2771 7.44909C20.2577 7.02799 19.8961 6.71822 19.3865 6.71096C18.6681 6.70128 17.9474 6.71096 17.2291 6.71096C16.8893 6.71096 16.5981 6.59722 16.4137 6.29955C16.0157 5.65822 16.5059 4.89347 17.3164 4.98544C18.3672 5.10644 19.4253 5.10644 20.4761 4.98786C21.3497 4.89105 22.0025 5.1984 22.3738 5.91233C22.75 6.63836 23.0727 7.39101 23.4222 8.13155C23.6576 8.63009 23.893 9.12863 24.1478 9.67315C24.2109 9.53279 24.2473 9.44566 24.2862 9.35854C24.5192 8.84064 24.7425 8.3179 24.9876 7.80484C25.1186 7.53137 25.3467 7.39827 25.6695 7.40795C26.1354 7.42247 26.3951 7.71288 26.5674 8.08073C27.1571 9.32224 27.7323 10.5734 28.2977 11.827C28.487 12.2457 28.6787 12.6765 28.7855 13.1194C28.9189 13.676 28.4967 14.131 27.9312 14.0608C27.5527 14.0124 27.1862 13.872 26.8149 13.7655C26.5383 13.6881 26.2641 13.601 25.9267 13.5017C26.0117 13.6929 26.0602 13.8067 26.1112 13.918C26.5528 14.8691 27.0042 15.8129 27.4362 16.7689C27.6716 17.2916 27.657 17.2989 28.1933 17.1706C29.7562 16.7979 31.2462 17.023 32.6222 17.8143C34.2991 18.7775 35.3426 20.2175 35.6945 22.139C36.0221 23.9227 35.6266 25.5441 34.5442 26.9719C33.3672 28.528 31.7777 29.3678 29.8023 29.4452C28.2394 29.5082 26.8441 29.058 25.6355 28.0731C24.3882 27.0566 23.6309 25.7595 23.3882 24.1574C23.1819 22.7852 23.4149 21.5074 24.058 20.2901C24.4246 19.5931 24.9269 19.005 25.5093 18.4823C24.9487 17.2892 24.393 16.113 23.8275 14.9127C23.5799 15.2611 23.3615 15.5685 23.1455 15.8734C22.0049 17.4828 20.8692 19.097 19.7214 20.7039C19.088 21.5897 18.4594 22.4803 17.7872 23.3346C17.3116 23.9396 16.717 24.4187 15.9307 24.5857C15.7414 24.6244 15.5473 24.6365 15.3556 24.6389C13.7296 24.6462 12.1013 24.6462 10.4753 24.6559C10.0701 24.651 9.85651 24.7624 9.85651 24.7624C9.24981 25.0141 9.18671 26.062 9.87349 26.3717C10.0604 26.454 10.2836 26.4831 10.4923 26.4855C11.8537 26.4976 13.2151 26.4952 14.5766 26.4927C14.8095 26.4927 15.0547 26.5121 15.1663 26.7275C15.2512 26.8896 15.2949 27.122 15.2488 27.2938C15.176 27.5503 14.9455 27.6762 14.6615 27.6762C13.7369 27.6762 12.8147 27.6737 11.8901 27.681C11.3927 27.6834 11.0044 28.0731 10.9947 28.5595C10.9825 29.1258 11.3344 29.4985 11.929 29.5106C12.7832 29.5275 13.6399 29.5179 14.4965 29.5251C14.6106 29.5251 14.7295 29.5348 14.8411 29.5614C15.1323 29.6364 15.3168 29.8857 15.2949 30.1519C15.2706 30.4302 15.0668 30.6408 14.7635 30.6698C14.5426 30.6916 14.3169 30.6916 14.0937 30.6916C11.8683 30.7013 9.64052 30.7013 7.41517 30.7231C7.1555 30.7255 6.86671 30.7884 6.6483 30.9191C6.32069 31.1175 6.20663 31.5556 6.32069 31.8605C6.50027 32.3348 6.80362 32.5478 7.30839 32.5478C15.8846 32.5526 24.4585 32.5551 33.0348 32.5623C34.6947 32.5623 36.243 32.1388 37.6529 31.2918C40.0797 29.8373 41.6086 27.7221 42.1643 24.9294C42.4191 23.6516 42.39 22.3811 42.1158 21.1226C41.8173 19.7528 41.196 18.5162 40.3466 17.4029L40.3442 17.4005ZM10.3103 7.35471C10.2278 7.42731 10.1404 7.49749 10.0628 7.57251C10.0045 7.6306 9.95358 7.69594 9.90019 7.75886C9.8468 7.68384 9.79341 7.61124 9.77885 7.58945C9.66016 8.07589 11 7.5 10.3176 7.1127C10.371 7.13206 10.4074 7.1974 10.451 7.24096C10.4049 7.27968 10.3564 7.31598 10.3103 7.35471Z" fill="#F37421"/>
<path d="M11.2286 52.9521C10.9803 52.9628 10.7859 52.8986 10.6456 52.7592C10.5052 52.6201 10.4351 52.4432 10.4351 52.229C10.4351 52.0683 10.489 51.9238 10.597 51.7953C10.6942 51.6668 10.8399 51.5971 11.0343 51.5865L11.5363 51.5543C12.0545 51.5114 12.4486 51.3401 12.7185 51.04C12.9884 50.7295 13.1234 50.3009 13.1234 49.7547V42.2514C13.1234 41.9729 13.1935 41.764 13.3339 41.6249C13.4742 41.4855 13.6794 41.416 13.9493 41.416C14.2192 41.416 14.4243 41.4855 14.5647 41.6249C14.7158 41.764 14.7914 41.9729 14.7914 42.2514V49.7547C14.7914 50.3975 14.6727 50.949 14.4351 51.4095C14.2084 51.8594 13.8737 52.213 13.4311 52.47C12.9884 52.727 12.4378 52.8771 11.7792 52.9199L11.2286 52.9521Z" fill="white"/>
<path d="M25.4621 53.0003C24.6955 53.0003 24.0207 52.9039 23.4377 52.7111C22.8547 52.5075 22.3635 52.2077 21.964 51.8113C21.5753 51.4151 21.2785 50.9224 21.0733 50.3331C20.8682 49.744 20.7656 49.0637 20.7656 48.2927V42.2514C20.7656 41.9729 20.8358 41.764 20.9761 41.6249C21.1273 41.4855 21.3378 41.416 21.6077 41.416C21.8776 41.416 22.0828 41.4855 22.2231 41.6249C22.3743 41.764 22.4499 41.9729 22.4499 42.2514V48.2605C22.4499 49.3638 22.7036 50.1886 23.211 50.7348C23.7292 51.281 24.4795 51.5543 25.4621 51.5543C26.4554 51.5543 27.2057 51.281 27.7132 50.7348C28.2206 50.1886 28.4742 49.3638 28.4742 48.2605V42.2514C28.4742 41.9729 28.5443 41.764 28.6849 41.6249C28.8358 41.4855 29.0411 41.416 29.3 41.416C29.5701 41.416 29.7752 41.4855 29.9155 41.6249C30.056 41.764 30.1261 41.9729 30.1261 42.2514V48.2927C30.1261 49.321 29.948 50.1886 29.5917 50.8955C29.2462 51.5918 28.7281 52.1167 28.0369 52.47C27.346 52.8236 26.4877 53.0003 25.4621 53.0003Z" fill="white"/>
<path d="M36.9181 52.9681C36.6696 52.9681 36.4752 52.8986 36.3349 52.7592C36.1946 52.6201 36.1245 52.4219 36.1245 52.1649V42.2514C36.1245 41.9838 36.1893 41.7802 36.3187 41.6408C36.4592 41.491 36.6426 41.416 36.8693 41.416C37.0637 41.416 37.2095 41.4535 37.3066 41.5286C37.4146 41.5927 37.5388 41.7159 37.6791 41.8979L44.3513 50.6223H43.9465V42.2033C43.9465 41.9569 44.0113 41.764 44.1406 41.6249C44.2812 41.4855 44.4755 41.416 44.7238 41.416C44.9827 41.416 45.1771 41.4855 45.3067 41.6249C45.4363 41.764 45.5011 41.9569 45.5011 42.2033V52.1808C45.5011 52.4272 45.4363 52.6201 45.3067 52.7592C45.188 52.8986 45.0259 52.9681 44.8209 52.9681C44.6265 52.9681 44.4646 52.9306 44.335 52.8555C44.2164 52.7808 44.0868 52.6523 43.9465 52.47L37.3066 43.7618H37.6791V52.1649C37.6791 52.4219 37.6143 52.6201 37.4847 52.7592C37.3551 52.8986 37.1663 52.9681 36.9181 52.9681Z" fill="white"/>
<path d="M56.6782 53.0002C55.5228 53.0002 54.5351 52.7645 53.7144 52.2933C52.8939 51.8219 52.2625 51.1525 51.8198 50.2849C51.3879 49.4066 51.1719 48.373 51.1719 47.184C51.1719 46.2949 51.2961 45.497 51.5444 44.7901C51.7926 44.0723 52.1491 43.4617 52.6134 42.9583C53.0883 42.4443 53.6659 42.0532 54.3461 41.7855C55.037 41.5176 55.8143 41.3838 56.6782 41.3838C57.315 41.3838 57.9251 41.4695 58.508 41.6408C59.1019 41.8121 59.6146 42.0585 60.0466 42.3799C60.2301 42.4978 60.349 42.6425 60.4029 42.8138C60.4676 42.9745 60.4786 43.1296 60.4354 43.2797C60.4029 43.4297 60.3327 43.5582 60.2247 43.6652C60.1167 43.7618 59.9765 43.8153 59.8037 43.8259C59.6418 43.8368 59.4637 43.7777 59.2693 43.6492C58.9131 43.3813 58.5189 43.1834 58.087 43.0549C57.6553 42.9261 57.2017 42.862 56.7268 42.862C55.9063 42.862 55.2151 43.0333 54.6538 43.376C54.0925 43.708 53.6659 44.1955 53.3744 44.8382C53.083 45.4808 52.9371 46.2627 52.9371 47.184C52.9371 48.1051 53.083 48.8924 53.3744 49.5458C53.6659 50.1886 54.0925 50.6813 54.6538 51.024C55.2151 51.356 55.9063 51.522 56.7268 51.522C57.2017 51.522 57.6553 51.4579 58.087 51.3292C58.5296 51.19 58.9453 50.9865 59.3341 50.7188C59.5285 50.6009 59.701 50.5472 59.8522 50.5581C60.0143 50.5688 60.1493 50.6222 60.2572 50.7188C60.365 50.8151 60.4354 50.9383 60.4676 51.0884C60.5108 51.2275 60.5055 51.3776 60.4514 51.5382C60.4082 51.6881 60.3058 51.8166 60.1437 51.9238C59.701 52.2771 59.1776 52.545 58.5728 52.727C57.9683 52.9092 57.3366 53.0002 56.6782 53.0002Z" fill="white"/>
<path d="M69.3746 52.9679C69.1048 52.9679 68.8941 52.8928 68.7432 52.743C68.6027 52.593 68.5325 52.3841 68.5325 52.1165V42.9259H65.0994C64.8725 42.9259 64.6943 42.8671 64.565 42.7493C64.4354 42.6207 64.3706 42.4441 64.3706 42.219C64.3706 41.9942 64.4354 41.8228 64.565 41.705C64.6943 41.5871 64.8725 41.5283 65.0994 41.5283H73.6339C73.8714 41.5283 74.0549 41.5871 74.1845 41.705C74.3141 41.8228 74.3789 41.9942 74.3789 42.219C74.3789 42.4441 74.3141 42.6207 74.1845 42.7493C74.0549 42.8671 73.8714 42.9259 73.6339 42.9259H70.2007V52.1165C70.2007 52.3841 70.1303 52.593 69.99 52.743C69.8605 52.8928 69.6554 52.9679 69.3746 52.9679Z" fill="white"/>
<path d="M79.8904 52.9681C79.6203 52.9681 79.4099 52.8931 79.2587 52.7433C79.1185 52.5932 79.0483 52.3844 79.0483 52.1167V42.2674C79.0483 41.9891 79.1185 41.7802 79.2587 41.6408C79.4099 41.491 79.6203 41.416 79.8904 41.416C80.1603 41.416 80.3653 41.491 80.5059 41.6408C80.6568 41.7802 80.7325 41.9891 80.7325 42.2674V52.1167C80.7325 52.3844 80.6624 52.5932 80.5219 52.7433C80.3816 52.8931 80.171 52.9681 79.8904 52.9681Z" fill="white"/>
<path d="M91.7378 53.0002C90.6581 53.0002 89.7134 52.7645 88.9038 52.2933C88.1049 51.8112 87.4839 51.1365 87.0413 50.2689C86.6095 49.3904 86.3936 48.3621 86.3936 47.184C86.3936 46.2949 86.5178 45.497 86.7661 44.7901C87.0143 44.0723 87.3706 43.4617 87.8348 42.9583C88.2991 42.4443 88.8606 42.0532 89.5192 41.7855C90.1776 41.5176 90.9173 41.3838 91.7378 41.3838C92.8282 41.3838 93.7729 41.6195 94.5718 42.0907C95.3707 42.5621 95.9861 43.2315 96.4181 44.0991C96.8607 44.9667 97.0821 45.9897 97.0821 47.1678C97.0821 48.0569 96.9578 48.8604 96.7095 49.578C96.4613 50.2955 96.0995 50.9114 95.6245 51.4257C95.1603 51.9397 94.5987 52.3308 93.9403 52.5985C93.2817 52.8664 92.5476 53.0002 91.7378 53.0002ZM91.7378 51.5542C92.4935 51.5542 93.1359 51.3829 93.6649 51.04C94.2049 50.6973 94.615 50.1992 94.8958 49.5458C95.1872 48.8924 95.3331 48.1051 95.3331 47.184C95.3331 45.8021 95.02 44.731 94.3937 43.9706C93.7676 43.21 92.8823 42.8298 91.7378 42.8298C90.9821 42.8298 90.3342 43.0011 89.7944 43.3441C89.2654 43.6761 88.8553 44.1688 88.5636 44.822C88.283 45.4754 88.1425 46.2627 88.1425 47.184C88.1425 48.555 88.4556 49.6261 89.0819 50.3974C89.719 51.1687 90.6043 51.5542 91.7378 51.5542Z" fill="white"/>
<path d="M103.534 52.9681C103.286 52.9681 103.092 52.8986 102.951 52.7592C102.811 52.6201 102.741 52.4219 102.741 52.1649V42.2514C102.741 41.9838 102.806 41.7802 102.935 41.6408C103.075 41.491 103.259 41.416 103.486 41.416C103.68 41.416 103.826 41.4535 103.923 41.5286C104.031 41.5927 104.155 41.7159 104.295 41.8979L110.967 50.6223H110.563V42.2033C110.563 41.9569 110.628 41.764 110.757 41.6249C110.897 41.4855 111.092 41.416 111.34 41.416C111.599 41.416 111.793 41.4855 111.923 41.6249C112.053 41.764 112.117 41.9569 112.117 42.2033V52.1808C112.117 52.4272 112.053 52.6201 111.923 52.7592C111.804 52.8986 111.642 52.9681 111.437 52.9681C111.243 52.9681 111.081 52.9306 110.951 52.8555C110.833 52.7808 110.703 52.6523 110.563 52.47L103.923 43.7618H104.295V52.1649C104.295 52.4219 104.231 52.6201 104.101 52.7592C103.971 52.8986 103.783 52.9681 103.534 52.9681Z" fill="white"/>
</g>
<defs>
<clipPath id="clip0_1089_10566">
<rect width="116" height="53" fill="white"/>
</clipPath>
</defs>
</svg>
